# xmcd
#
# Track frame offsets: 
#        150
#        8186
#        32377
#        50027
#        65906
#        81392
#        97112
#        126658
#        144816
#        154651
#        155131
#        173782
#        189731
#        203573
#        218566
#        221197
#        265672
#
# Disc length: 3590 seconds
#
# Revision: 0
# Processed by: cddbd v1.5.2PL0 Copyright (c) Steve Scherf et al.
# Submitted via: ExactAudioCopy v0.99pb5
#
DISCID=fd0e0411
DTITLE=Creedence Clearwater Revival  - Fillmore West Closing Night - 7
DTITLE=4-71  FLAC
DYEAR=1900
DGENRE=
TTITLE0=Stage~Tuning:
TTITLE1=Born On The Bayou
TTITLE2=Green River
TTITLE3=It Came Out Of The Sky
TTITLE4=Don't Look Now -> Door To Door
TTITLE5=Travelin' Band
TTITLE6=Fortunate Son > Commotion
TTITLE7=Lodi
TTITLE8=Bad Moon Rising
TTITLE9=Ksan-Fm Aircheck:
TTITLE10=Proud Mary
TTITLE11=Up Around The Bend
TTITLE12=Hey Tonight
TTITLE13=Sweet Hitchiker
TTITLE14="Ccr 3-Year Anniversary Show @ The Fillmore"
TTITLE15=Keep On Chooglin'
TTITLE16=Bill Graham Outro
EXTD=
EXTT0=
EXTT1=
EXTT2=
EXTT3=
EXTT4=
EXTT5=
EXTT6=
EXTT7=
EXTT8=
EXTT9=
EXTT10=
EXTT11=
EXTT12=
EXTT13=
EXTT14=
EXTT15=
EXTT16=
PLAYORDER=
